<svg width="48" height="48" viewBox="0 0 48 48" fill="none" xmlns="http://www.w3.org/2000/svg">
<path d="M9.30127 21C9.30127 19.6454 9.63194 18.6054 10.2933 17.88C10.9546 17.144 11.8826 16.776 13.0773 16.776C13.7173 16.776 14.2719 16.8774 14.7413 17.08C15.2106 17.2827 15.5999 17.5707 15.9093 17.944C16.2186 18.3067 16.4479 18.7494 16.5973 19.272C16.7573 19.7947 16.8373 20.3707 16.8373 21C16.8373 22.3547 16.5066 23.4 15.8453 24.136C15.1946 24.8614 14.2719 25.224 13.0773 25.224C12.4373 25.224 11.8826 25.1227 11.4133 24.92C10.9439 24.7174 10.5493 24.4347 10.2293 24.072C9.91994 23.6987 9.68527 23.2507 9.52527 22.728C9.37594 22.2054 9.30127 21.6294 9.30127 21ZM11.4453 21C11.4453 21.352 11.4773 21.6774 11.5413 21.976C11.6053 22.2747 11.7013 22.536 11.8293 22.76C11.9573 22.984 12.1226 23.16 12.3253 23.288C12.5386 23.4054 12.7893 23.464 13.0773 23.464C13.6213 23.464 14.0266 23.2667 14.2933 22.872C14.5599 22.4774 14.6933 21.8534 14.6933 21C14.6933 20.264 14.5706 19.672 14.3253 19.224C14.0799 18.7654 13.6639 18.536 13.0773 18.536C12.5653 18.536 12.1653 18.728 11.8773 19.112C11.5893 19.496 11.4453 20.1254 11.4453 21Z" fill="#141414"/>
<path d="M18.279 13.8H20.359V17.64H20.423C20.647 17.384 20.935 17.1814 21.287 17.032C21.639 16.8827 22.0284 16.808 22.455 16.808C23.415 16.808 24.1457 17.1387 24.647 17.8C25.159 18.4507 25.415 19.448 25.415 20.792C25.415 22.232 25.0577 23.3254 24.343 24.072C23.639 24.8187 22.6684 25.192 21.431 25.192C20.7484 25.192 20.1244 25.1334 19.559 25.016C18.9937 24.9094 18.567 24.7867 18.279 24.648V13.8ZM21.847 18.568C21.463 18.568 21.1484 18.6694 20.903 18.872C20.6684 19.064 20.487 19.3467 20.359 19.72V23.208C20.5297 23.2934 20.711 23.352 20.903 23.384C21.1057 23.416 21.319 23.432 21.543 23.432C22.1084 23.432 22.535 23.2294 22.823 22.824C23.1217 22.408 23.271 21.752 23.271 20.856C23.271 19.3307 22.7964 18.568 21.847 18.568Z" fill="#141414"/>
<path d="M27.0491 17H29.1291V25.336C29.1291 26.3067 28.9371 27.048 28.5531 27.56C28.1691 28.072 27.5558 28.328 26.7131 28.328C26.3931 28.328 26.0518 28.2907 25.6891 28.216V26.472C25.7318 26.472 25.7691 26.472 25.8011 26.472C25.8331 26.4827 25.8651 26.488 25.8971 26.488C26.3771 26.488 26.6865 26.3334 26.8251 26.024C26.9745 25.7147 27.0491 25.288 27.0491 24.744V17ZM26.7611 14.744C26.7611 14.4347 26.8731 14.1734 27.0971 13.96C27.3318 13.736 27.6518 13.624 28.0571 13.624C28.4625 13.624 28.7878 13.736 29.0331 13.96C29.2891 14.1734 29.4171 14.4347 29.4171 14.744C29.4171 15.0534 29.2891 15.3147 29.0331 15.528C28.7878 15.7307 28.4625 15.832 28.0571 15.832C27.6518 15.832 27.3318 15.7307 27.0971 15.528C26.8731 15.3147 26.7611 15.0534 26.7611 14.744Z" fill="#141414"/>
<path fill-rule="evenodd" clip-rule="evenodd" d="M6 8H35V24.2994C35.3289 24.2667 35.6625 24.25 36 24.25C36.3375 24.25 36.6711 24.2667 37 24.2994V8C37 6.89543 36.1046 6 35 6H6C4.89543 6 4 6.89543 4 8V37C4 38.1046 4.89543 39 6 39H27.198C26.8577 38.3709 26.583 37.7012 26.3829 37H6V8Z" fill="#141414"/>
<path fill-rule="evenodd" clip-rule="evenodd" d="M44 34.25C44 38.6683 40.4183 42.25 36 42.25C31.5817 42.25 28 38.6683 28 34.25C28 29.8317 31.5817 26.25 36 26.25C40.4183 26.25 44 29.8317 44 34.25ZM37 33.25H41V35.25H37V39.25H35V35.25H31V33.25H35V29.25H37V33.25Z" fill="#0099F2"/>
</svg>
