<svg width="14" height="14" viewBox="0 0 14 14" fill="none" xmlns="http://www.w3.org/2000/svg">
<path d="M12.6188 7.00047H10.6759V5.68765C11.6841 5.68765 12.5007 4.87108 12.5007 3.86284C12.5007 3.80507 12.4534 3.75781 12.3957 3.75781H11.608C11.5502 3.75781 11.5029 3.80507 11.5029 3.86284C11.5029 4.3197 11.1327 4.68991 10.6759 4.68991H3.32411C2.86725 4.68991 2.49704 4.3197 2.49704 3.86284C2.49704 3.80507 2.44978 3.75781 2.39202 3.75781H1.60433C1.54656 3.75781 1.4993 3.80507 1.4993 3.86284C1.4993 4.87108 2.31587 5.68765 3.32411 5.68765V7.00047H1.38115C1.32338 7.00047 1.27612 7.04773 1.27612 7.10549V7.84067C1.27612 7.89843 1.32338 7.94569 1.38115 7.94569H3.32411V9.20599C3.32411 9.29133 3.32674 9.37666 3.3333 9.45937C2.43271 9.84402 1.80125 10.738 1.80125 11.7791C1.80125 11.8369 1.84851 11.8841 1.90627 11.8841H2.64145C2.69921 11.8841 2.74648 11.8369 2.74648 11.7791C2.74648 11.1988 3.06024 10.6908 3.52891 10.4177C3.60768 10.6435 3.70746 10.8588 3.82692 11.061C4.14594 11.6058 4.60148 12.0614 5.1463 12.3804C5.69112 12.6994 6.3239 12.8819 7 12.8819C7.6761 12.8819 8.31018 12.6994 8.855 12.3804C9.39982 12.0614 9.85537 11.6058 10.1744 11.061C10.2938 10.8575 10.3936 10.6422 10.4724 10.4177C10.9398 10.6908 11.2535 11.1988 11.2535 11.7791C11.2535 11.8369 11.3008 11.8841 11.3585 11.8841H12.0937C12.1515 11.8841 12.1987 11.8369 12.1987 11.7791C12.1987 10.738 11.5673 9.84402 10.6667 9.45937C10.6719 9.37535 10.6759 9.29133 10.6759 9.20599V7.94569H12.6188C12.6766 7.94569 12.7239 7.89843 12.7239 7.84067V7.10549C12.7239 7.04773 12.6766 7.00047 12.6188 7.00047ZM9.67814 9.20599C9.67814 9.68911 9.55079 10.1512 9.31318 10.5569C9.08081 10.9547 8.74866 11.2868 8.35088 11.5192C8.08701 11.6741 7.7995 11.7817 7.49887 11.8382V6.63288C7.49887 6.57511 7.4516 6.52785 7.39384 6.52785H6.60615C6.54839 6.52785 6.50113 6.57511 6.50113 6.63288V11.8382C6.20049 11.7817 5.91298 11.6741 5.64911 11.5192C5.25133 11.2868 4.91918 10.9547 4.68682 10.5569C4.4492 10.1512 4.32185 9.68911 4.32185 9.20599V5.68765H9.67814V9.20599Z" fill="#838C91"/>
<path d="M4.26933 3.95482H5.00451C5.06227 3.95482 5.10953 3.90756 5.10953 3.8498C5.10953 3.47827 5.18699 3.15138 5.33402 2.88488C5.47318 2.63019 5.67536 2.42802 5.93004 2.28886C6.19786 2.14314 6.52343 2.06437 6.89496 2.06437H7.10501C7.47654 2.06437 7.80343 2.14182 8.06993 2.28886C8.32462 2.42802 8.52679 2.63019 8.66595 2.88488C8.81167 3.15269 8.89044 3.47827 8.89044 3.8498C8.89044 3.90756 8.9377 3.95482 8.99547 3.95482H9.73064C9.78841 3.95482 9.83567 3.90756 9.83567 3.8498C9.83567 3.32467 9.72014 2.84287 9.49565 2.43064C9.26984 2.01711 8.9377 1.68496 8.52416 1.45916C8.11194 1.23467 7.63014 1.11914 7.10501 1.11914H6.89496C6.36984 1.11914 5.88803 1.23467 5.47581 1.45916C5.06227 1.68496 4.73013 2.01711 4.50433 2.43064C4.27983 2.84287 4.16431 3.32467 4.16431 3.8498C4.16431 3.90756 4.21157 3.95482 4.26933 3.95482Z" fill="#838C91"/>
</svg>
