<svg width="48" height="48" viewBox="0 0 48 48" fill="none" xmlns="http://www.w3.org/2000/svg">
<path fill-rule="evenodd" clip-rule="evenodd" d="M6 8H35V24.2994C35.3289 24.2667 35.6625 24.25 36 24.25C36.3375 24.25 36.6711 24.2667 37 24.2994V8C37 6.89543 36.1046 6 35 6H6C4.89543 6 4 6.89543 4 8V37C4 38.1046 4.89543 39 6 39H27.198C26.8577 38.3709 26.583 37.7012 26.3829 37H6V8Z" fill="#141414"/>
<path fill-rule="evenodd" clip-rule="evenodd" d="M36 42C40.4183 42 44 38.4183 44 34C44 29.5817 40.4183 26 36 26C31.5817 26 28 29.5817 28 34C28 38.4183 31.5817 42 36 42ZM35 30.75L35 31.75V35.1716L33.1715 33.3431L31.7573 34.7574L34.5857 37.5858L34.5857 37.5858L36 39L37.4142 37.5858L40.2426 34.7574L38.8284 33.3431L37 35.1715V31.75L41 31.75V29.75H35L35 30.75Z" fill="#0099F2"/>
<path d="M10.2213 16H12.3013V24.336C12.3013 25.3067 12.1093 26.048 11.7253 26.56C11.3413 27.072 10.728 27.328 9.88533 27.328C9.56533 27.328 9.22399 27.2907 8.86133 27.216V25.472C8.90399 25.472 8.94133 25.472 8.97333 25.472C9.00533 25.4827 9.03733 25.488 9.06933 25.488C9.54933 25.488 9.85866 25.3334 9.99733 25.024C10.1467 24.7147 10.2213 24.288 10.2213 23.744V16ZM9.94933 13.744C9.94933 13.4347 10.0613 13.1734 10.2853 12.96C10.52 12.736 10.84 12.624 11.2453 12.624C11.6507 12.624 11.976 12.736 12.2213 12.96C12.4773 13.1734 12.6053 13.4347 12.6053 13.744C12.6053 14.0534 12.4773 14.3147 12.2213 14.528C11.976 14.7307 11.6507 14.832 11.2453 14.832C10.84 14.832 10.52 14.7307 10.2853 14.528C10.0613 14.3147 9.94933 14.0534 9.94933 13.744Z" fill="#141414"/>
<path d="M21.1106 21.184C21.1106 21.632 21.1159 22.08 21.1266 22.528C21.1372 22.976 21.1852 23.472 21.2706 24.016H19.7826L19.4946 22.976H19.4306C19.2172 23.3494 18.9079 23.6534 18.5026 23.888C18.1079 24.112 17.6386 24.224 17.0946 24.224C16.0919 24.224 15.3132 23.8934 14.7586 23.232C14.2039 22.5707 13.9266 21.536 13.9266 20.128C13.9266 18.7627 14.2359 17.7014 14.8546 16.944C15.4732 16.1867 16.3799 15.808 17.5746 15.808C17.9052 15.808 18.1772 15.8294 18.3906 15.872C18.6039 15.904 18.8172 15.9627 19.0306 16.048V12.8H21.1106V21.184ZM17.5746 22.464C17.9799 22.464 18.2999 22.368 18.5346 22.176C18.7692 21.9734 18.9346 21.6854 19.0306 21.312V17.92C18.8812 17.8027 18.7159 17.7174 18.5346 17.664C18.3532 17.6 18.1186 17.568 17.8306 17.568C17.2439 17.568 16.8012 17.7654 16.5026 18.16C16.2146 18.5547 16.0706 19.232 16.0706 20.192C16.0706 20.8747 16.1879 21.424 16.4226 21.84C16.6679 22.256 17.0519 22.464 17.5746 22.464Z" fill="#141414"/>
<path d="M25.5756 20.688H25.0156V24H22.9356V12.8H25.0156V19.408L25.4956 19.184L27.3196 16H29.6076L27.6876 19.04L26.8716 19.648L27.7516 20.272L29.9116 24H27.5276L25.5756 20.688Z" fill="#141414"/>
</svg>
