<svg width="14" height="14" viewBox="0 0 14 14" fill="none" xmlns="http://www.w3.org/2000/svg">
<path d="M9.62498 4.8129H2.37068L4.24783 2.93439C4.32324 2.85116 4.36375 2.74213 4.36099 2.62986C4.35823 2.51759 4.31239 2.41068 4.23298 2.33127C4.15357 2.25185 4.04666 2.20602 3.93439 2.20326C3.82212 2.20049 3.71309 2.24101 3.62986 2.31642L1.01033 4.93458C0.968577 4.97533 0.935397 5.02403 0.912743 5.0778C0.890089 5.13156 0.878418 5.18932 0.878418 5.24767C0.878418 5.30601 0.890089 5.36377 0.912743 5.41754C0.935397 5.4713 0.968577 5.52 1.01033 5.56075L3.62713 8.18438C3.70926 8.26651 3.82065 8.31265 3.9368 8.31265C4.05294 8.31265 4.16433 8.26651 4.24646 8.18438C4.32859 8.10226 4.37473 7.99087 4.37473 7.87472C4.37473 7.75857 4.32859 7.64718 4.24646 7.56505L2.36932 5.6879H9.62498C10.3212 5.6879 10.9889 5.96446 11.4811 6.45675C11.9734 6.94903 12.25 7.61671 12.25 8.3129C12.25 9.00909 11.9734 9.67677 11.4811 10.1691C10.9889 10.6613 10.3212 10.9379 9.62498 10.9379H5.24998C5.13395 10.9379 5.02267 10.984 4.94062 11.066C4.85857 11.1481 4.81248 11.2594 4.81248 11.3754C4.81248 11.4914 4.85857 11.6027 4.94062 11.6848C5.02267 11.7668 5.13395 11.8129 5.24998 11.8129H9.62498C10.5532 11.8129 11.4435 11.4442 12.0999 10.7878C12.7562 10.1314 13.125 9.24116 13.125 8.3129C13.125 7.38464 12.7562 6.4944 12.0999 5.83803C11.4435 5.18165 10.5532 4.8129 9.62498 4.8129Z" fill="#838C91"/>
</svg>
