<svg width="48" height="48" viewBox="0 0 48 48" fill="none" xmlns="http://www.w3.org/2000/svg">
<path d="M13.5939 21.192L13.8659 22.424H13.9459L14.1699 21.16L15.5299 17H17.7699L14.4259 25.08H13.1619L9.68994 17H12.1059L13.5939 21.192Z" fill="#141414"/>
<path d="M18.4029 17.464C18.8296 17.272 19.3363 17.1227 19.9229 17.016C20.5096 16.8987 21.1229 16.84 21.7629 16.84C22.3176 16.84 22.7816 16.9093 23.1549 17.048C23.5283 17.176 23.8216 17.3627 24.0349 17.608C24.2589 17.8533 24.4136 18.1467 24.4989 18.488C24.5949 18.8293 24.6429 19.2133 24.6429 19.64C24.6429 20.1093 24.6269 20.584 24.5949 21.064C24.5629 21.5333 24.5416 21.9973 24.5309 22.456C24.5309 22.9147 24.5469 23.3627 24.5789 23.8C24.6109 24.2267 24.6909 24.632 24.8189 25.016H23.1229L22.7869 23.912H22.7069C22.4936 24.2427 22.1949 24.5307 21.8109 24.776C21.4376 25.0107 20.9523 25.128 20.3549 25.128C19.9816 25.128 19.6456 25.0747 19.3469 24.968C19.0483 24.8507 18.7923 24.6907 18.5789 24.488C18.3656 24.2747 18.2003 24.0293 18.0829 23.752C17.9656 23.464 17.9069 23.144 17.9069 22.792C17.9069 22.3013 18.0136 21.8907 18.2269 21.56C18.4509 21.2187 18.7656 20.9467 19.1709 20.744C19.5869 20.5307 20.0776 20.3867 20.6429 20.312C21.2189 20.2267 21.8589 20.2 22.5629 20.232C22.6376 19.6347 22.5949 19.208 22.4349 18.952C22.2749 18.6853 21.9176 18.552 21.3629 18.552C20.9469 18.552 20.5043 18.5947 20.0349 18.68C19.5763 18.7653 19.1976 18.8773 18.8989 19.016L18.4029 17.464ZM21.0429 23.416C21.4589 23.416 21.7896 23.3253 22.0349 23.144C22.2803 22.952 22.4616 22.7493 22.5789 22.536V21.496C22.2483 21.464 21.9283 21.4587 21.6189 21.48C21.3203 21.5013 21.0536 21.5493 20.8189 21.624C20.5843 21.6987 20.3976 21.8053 20.2589 21.944C20.1203 22.0827 20.0509 22.2587 20.0509 22.472C20.0509 22.7707 20.1363 23.0053 20.3069 23.176C20.4883 23.336 20.7336 23.416 21.0429 23.416Z" fill="#141414"/>
<path d="M30.8044 18.952C30.4738 18.8347 30.1751 18.776 29.9084 18.776C29.5351 18.776 29.2204 18.8773 28.9644 19.08C28.7191 19.272 28.5538 19.5227 28.4684 19.832V25H26.3884V17H28.0044L28.2444 18.056H28.3084C28.4898 17.6613 28.7351 17.3573 29.0444 17.144C29.3538 16.9307 29.7164 16.824 30.1324 16.824C30.4098 16.824 30.7244 16.8827 31.0764 17L30.8044 18.952Z" fill="#141414"/>
<path fill-rule="evenodd" clip-rule="evenodd" d="M6 8H35V24.2994C35.3289 24.2667 35.6625 24.25 36 24.25C36.3375 24.25 36.6711 24.2667 37 24.2994V8C37 6.89543 36.1046 6 35 6H6C4.89543 6 4 6.89543 4 8V37C4 38.1046 4.89543 39 6 39H27.198C26.8577 38.3709 26.583 37.7012 26.3829 37H6V8Z" fill="#141414"/>
<path fill-rule="evenodd" clip-rule="evenodd" d="M36 42.25C40.4183 42.25 44 38.6683 44 34.25C44 29.8317 40.4183 26.25 36 26.25C31.5817 26.25 28 29.8317 28 34.25C28 38.6683 31.5817 42.25 36 42.25ZM40.2426 32.4038C40.4379 32.2085 40.4379 31.8919 40.2426 31.6967L38.8284 30.2825C38.6332 30.0872 38.3166 30.0872 38.1213 30.2825L32.8409 35.5629C32.6646 35.7391 32.5606 35.9749 32.5491 36.2239L32.4897 37.5129C32.4762 37.8069 32.7182 38.0489 33.0122 38.0354L34.3012 37.976C34.5502 37.9645 34.786 37.8605 34.9622 37.6842L40.2426 32.4038Z" fill="#0099F2"/>
</svg>
