<svg width="48" height="48" viewBox="0 0 48 48" fill="none" xmlns="http://www.w3.org/2000/svg">
<path fill-rule="evenodd" clip-rule="evenodd" d="M36 42.25C40.4183 42.25 44 38.6683 44 34.25C44 29.8317 40.4183 26.25 36 26.25C31.5817 26.25 28 29.8317 28 34.25C28 38.6683 31.5817 42.25 36 42.25ZM40.2426 32.4038C40.4379 32.2086 40.4379 31.892 40.2426 31.6967L38.8284 30.2825C38.6332 30.0873 38.3166 30.0873 38.1213 30.2825L32.8409 35.5629C32.6646 35.7392 32.5606 35.975 32.5491 36.224L32.4897 37.513C32.4762 37.807 32.7182 38.049 33.0122 38.0355L34.3012 37.9761C34.5502 37.9646 34.786 37.8605 34.9622 37.6842L40.2426 32.4038Z" fill="#0099F2"/>
<path fill-rule="evenodd" clip-rule="evenodd" d="M35 8H6V37H26.3829C26.583 37.7012 26.8577 38.3709 27.198 39H6C4.89543 39 4 38.1046 4 37V8C4 6.89543 4.89543 6 6 6H35C36.1046 6 37 6.89543 37 8V24.2994C36.6711 24.2667 36.3375 24.25 36 24.25C35.6625 24.25 35.3289 24.2667 35 24.2994V8ZM16 12H10V18H16V12ZM18 12H32V14H18V12ZM18 20H32V22H18V20ZM32 16H18V18H32V16ZM18 24H32V26H18V24ZM10 20H16V26H10V20Z" fill="#141414"/>
</svg>
