<svg width="48" height="48" viewBox="0 0 48 48" fill="none" xmlns="http://www.w3.org/2000/svg">
<path d="M9.30151 21C9.30151 19.6453 9.63218 18.6053 10.2935 17.88C10.9548 17.144 11.8828 16.776 13.0775 16.776C13.7175 16.776 14.2722 16.8773 14.7415 17.08C15.2108 17.2827 15.6002 17.5707 15.9095 17.944C16.2188 18.3067 16.4482 18.7493 16.5975 19.272C16.7575 19.7947 16.8375 20.3707 16.8375 21C16.8375 22.3547 16.5068 23.4 15.8455 24.136C15.1948 24.8613 14.2722 25.224 13.0775 25.224C12.4375 25.224 11.8828 25.1227 11.4135 24.92C10.9442 24.7173 10.5495 24.4347 10.2295 24.072C9.92018 23.6987 9.68551 23.2507 9.52551 22.728C9.37618 22.2053 9.30151 21.6293 9.30151 21ZM11.4455 21C11.4455 21.352 11.4775 21.6773 11.5415 21.976C11.6055 22.2747 11.7015 22.536 11.8295 22.76C11.9575 22.984 12.1228 23.16 12.3255 23.288C12.5388 23.4053 12.7895 23.464 13.0775 23.464C13.6215 23.464 14.0268 23.2667 14.2935 22.872C14.5602 22.4773 14.6935 21.8533 14.6935 21C14.6935 20.264 14.5708 19.672 14.3255 19.224C14.0802 18.7653 13.6642 18.536 13.0775 18.536C12.5655 18.536 12.1655 18.728 11.8775 19.112C11.5895 19.496 11.4455 20.1253 11.4455 21Z" fill="#141414"/>
<path d="M18.2793 13.8H20.3593V17.64H20.4233C20.6473 17.384 20.9353 17.1813 21.2873 17.032C21.6393 16.8827 22.0286 16.808 22.4553 16.808C23.4153 16.808 24.1459 17.1387 24.6473 17.8C25.1593 18.4507 25.4153 19.448 25.4153 20.792C25.4153 22.232 25.0579 23.3253 24.3433 24.072C23.6393 24.8187 22.6686 25.192 21.4313 25.192C20.7486 25.192 20.1246 25.1333 19.5593 25.016C18.9939 24.9093 18.5673 24.7867 18.2793 24.648V13.8ZM21.8473 18.568C21.4633 18.568 21.1486 18.6693 20.9033 18.872C20.6686 19.064 20.4873 19.3467 20.3593 19.72V23.208C20.5299 23.2933 20.7113 23.352 20.9033 23.384C21.1059 23.416 21.3193 23.432 21.5433 23.432C22.1086 23.432 22.5353 23.2293 22.8233 22.824C23.1219 22.408 23.2713 21.752 23.2713 20.856C23.2713 19.3307 22.7966 18.568 21.8473 18.568Z" fill="#141414"/>
<path d="M27.0494 17H29.1294V25.336C29.1294 26.3067 28.9374 27.048 28.5534 27.56C28.1694 28.072 27.5561 28.328 26.7134 28.328C26.3934 28.328 26.0521 28.2907 25.6894 28.216V26.472C25.7321 26.472 25.7694 26.472 25.8014 26.472C25.8334 26.4827 25.8654 26.488 25.8974 26.488C26.3774 26.488 26.6867 26.3333 26.8254 26.024C26.9747 25.7147 27.0494 25.288 27.0494 24.744V17ZM26.7614 14.744C26.7614 14.4347 26.8734 14.1733 27.0974 13.96C27.3321 13.736 27.6521 13.624 28.0574 13.624C28.4627 13.624 28.7881 13.736 29.0334 13.96C29.2894 14.1733 29.4174 14.4347 29.4174 14.744C29.4174 15.0533 29.2894 15.3147 29.0334 15.528C28.7881 15.7307 28.4627 15.832 28.0574 15.832C27.6521 15.832 27.3321 15.7307 27.0974 15.528C26.8734 15.3147 26.7614 15.0533 26.7614 14.744Z" fill="#141414"/>
<path fill-rule="evenodd" clip-rule="evenodd" d="M6 8H35V24.2994C35.3289 24.2667 35.6625 24.25 36 24.25C36.3375 24.25 36.6711 24.2667 37 24.2994V8C37 6.89543 36.1046 6 35 6H6C4.89543 6 4 6.89543 4 8V37C4 38.1046 4.89543 39 6 39H27.198C26.8577 38.3709 26.583 37.7012 26.3829 37H6V8Z" fill="#141414"/>
<path fill-rule="evenodd" clip-rule="evenodd" d="M36 26.25C40.4183 26.25 44 29.8317 44 34.25C44 38.6683 40.4183 42.25 36 42.25C31.5817 42.25 28 38.6683 28 34.25C28 29.8317 31.5817 26.25 36 26.25ZM35 33.0785L35 39.25L37 39.25L37 33.0784L38.8284 34.9069L40.2426 33.4926L37.4142 30.6642L36 29.25L34.5858 30.6642L34.5858 30.6642L31.7574 33.4926L33.1716 34.9069L35 33.0785Z" fill="#0099F2"/>
</svg>
