<svg width="48" height="48" viewBox="0 0 48 48" fill="none" xmlns="http://www.w3.org/2000/svg">
<path fill-rule="evenodd" clip-rule="evenodd" d="M44 34.25C44 38.6683 40.4183 42.25 36 42.25C31.5817 42.25 28 38.6683 28 34.25C28 29.8317 31.5817 26.25 36 26.25C40.4183 26.25 44 29.8317 44 34.25ZM37 33.25H41V35.25H37V39.25H35V35.25H31V33.25H35V29.25H37V33.25Z" fill="#0099F2"/>
<path fill-rule="evenodd" clip-rule="evenodd" d="M35 8H6V37H26.3829C26.583 37.7012 26.8577 38.3709 27.198 39H6C4.89543 39 4 38.1046 4 37V8C4 6.89543 4.89543 6 6 6H35C36.1046 6 37 6.89543 37 8V24.2994C36.6711 24.2667 36.3375 24.25 36 24.25C35.6625 24.25 35.3289 24.2667 35 24.2994V8ZM16 12H10V18H16V12ZM18 12H32V14H18V12ZM18 20H32V22H18V20ZM32 16H18V18H32V16ZM18 24H32V26H18V24ZM10 20H16V26H10V20Z" fill="#141414"/>
</svg>
