<svg width="48" height="48" viewBox="0 0 48 48" fill="none" xmlns="http://www.w3.org/2000/svg">
<path d="M13.7083 21.792C13.7083 21.5787 13.6176 21.408 13.4363 21.28C13.2549 21.152 13.0309 21.0347 12.7643 20.928C12.4976 20.8213 12.2043 20.7147 11.8843 20.608C11.5643 20.4907 11.2709 20.336 11.0043 20.144C10.7376 19.9413 10.5136 19.6907 10.3323 19.392C10.1509 19.0827 10.0603 18.688 10.0603 18.208C10.0603 17.4187 10.2949 16.816 10.7643 16.4C11.2336 15.984 11.9109 15.776 12.7963 15.776C13.4043 15.776 13.9536 15.84 14.4443 15.968C14.9349 16.096 15.3189 16.24 15.5963 16.4L15.1323 17.904C14.8869 17.808 14.5776 17.7067 14.2043 17.6C13.8309 17.4933 13.4523 17.44 13.0683 17.44C12.4496 17.44 12.1403 17.68 12.1403 18.16C12.1403 18.352 12.2309 18.5067 12.4123 18.624C12.5936 18.7413 12.8176 18.8533 13.0843 18.96C13.3509 19.056 13.6443 19.1627 13.9643 19.28C14.2843 19.3973 14.5776 19.552 14.8443 19.744C15.1109 19.9253 15.3349 20.1653 15.5163 20.464C15.6976 20.7627 15.7883 21.1467 15.7883 21.616C15.7883 22.4267 15.5269 23.0667 15.0043 23.536C14.4923 23.9947 13.7189 24.224 12.6843 24.224C12.1189 24.224 11.5856 24.1493 11.0843 24C10.5936 23.8613 10.1936 23.696 9.88428 23.504L10.4603 21.952C10.7056 22.0907 11.0309 22.2293 11.4363 22.368C11.8416 22.496 12.2576 22.56 12.6843 22.56C12.9936 22.56 13.2389 22.5013 13.4203 22.384C13.6123 22.2667 13.7083 22.0693 13.7083 21.792Z" fill="#141414"/>
<path d="M23.9143 27.2H21.8343V23.312H21.7703C21.5889 23.5893 21.3436 23.8133 21.0343 23.984C20.7249 24.144 20.3249 24.224 19.8343 24.224C18.8423 24.224 18.0796 23.888 17.5463 23.216C17.0236 22.544 16.7623 21.5253 16.7623 20.16C16.7623 18.7307 17.1196 17.648 17.8343 16.912C18.5596 16.176 19.5943 15.808 20.9383 15.808C21.2263 15.808 21.5143 15.824 21.8023 15.856C22.0903 15.8773 22.3623 15.9147 22.6183 15.968C22.8849 16.0107 23.1303 16.064 23.3543 16.128C23.5783 16.1813 23.7649 16.2347 23.9143 16.288V27.2ZM20.3943 22.464C20.7996 22.464 21.1089 22.3733 21.3223 22.192C21.5463 22.0107 21.7169 21.7387 21.8343 21.376V17.776C21.6743 17.6907 21.4929 17.6373 21.2903 17.616C21.0876 17.584 20.8583 17.568 20.6023 17.568C20.0369 17.568 19.6103 17.7813 19.3223 18.208C19.0449 18.6347 18.9063 19.2587 18.9063 20.08C18.9063 20.8587 19.0343 21.4507 19.2903 21.856C19.5463 22.2613 19.9143 22.464 20.3943 22.464Z" fill="#141414"/>
<path d="M27.8684 21.312C27.8684 21.6853 27.9164 21.9573 28.0124 22.128C28.1084 22.2987 28.2631 22.384 28.4764 22.384C28.6044 22.384 28.7271 22.3733 28.8444 22.352C28.9724 22.3307 29.1271 22.2827 29.3084 22.208L29.5324 23.84C29.3617 23.9253 29.1004 24.0107 28.7484 24.096C28.3964 24.1813 28.0337 24.224 27.6604 24.224C27.0524 24.224 26.5884 24.0853 26.2684 23.808C25.9484 23.52 25.7884 23.0507 25.7884 22.4V12.8H27.8684V21.312Z" fill="#141414"/>
<path fill-rule="evenodd" clip-rule="evenodd" d="M6 9H35V24.0494C35.3289 24.0167 35.6625 24 36 24C36.3375 24 36.6711 24.0167 37 24.0494V9C37 7.89543 36.1046 7 35 7H6C4.89543 7 4 7.89543 4 9V38C4 39.1046 4.89543 40 6 40H27.9993C27.537 39.3845 27.144 38.714 26.8321 38H6V9Z" fill="#141414"/>
<path fill-rule="evenodd" clip-rule="evenodd" d="M36 42C40.4183 42 44 38.4183 44 34C44 29.5817 40.4183 26 36 26C31.5817 26 28 29.5817 28 34C28 38.4183 31.5817 42 36 42ZM32 33C32 32.5369 32.1049 32.0982 32.2924 31.7065L34.3867 33.8008L35.8008 32.3867L33.7065 30.2924C34.0982 30.1049 34.5369 30 35 30C36.6569 30 38 31.3431 38 33C38 33.4631 37.8951 33.9018 37.7076 34.2935L40.2426 36.8284L38.8284 38.2427L36.2934 35.7076C35.9017 35.8951 35.4631 36 35 36C33.3431 36 32 34.6569 32 33Z" fill="#0099F2"/>
</svg>
