<svg width="48" height="48" viewBox="0 0 48 48" fill="none" xmlns="http://www.w3.org/2000/svg">
<path fill-rule="evenodd" clip-rule="evenodd" d="M16.0711 13L17.4853 14.4142L11.8284 20.0711L17.4853 25.7279L16.0711 27.1421L10.4142 21.4853L9.00003 20.0711L9 20.0711L10.4142 18.6568L10.4142 18.6569L16.0711 13ZM25.4142 13L24 14.4142L29.6569 20.0711L24.0001 25.7279L25.4143 27.1421L31.0711 21.4853L32.4853 20.0711L32.4853 20.0711L31.0711 18.6568L31.0711 18.6569L25.4142 13ZM24.1415 17.829L22.7273 16.4148L16.9773 22.1648L18.3915 23.579L24.1415 17.829Z" fill="#141414"/>
<path fill-rule="evenodd" clip-rule="evenodd" d="M6 8H35V24.0494C35.3289 24.0167 35.6625 24 36 24C36.3375 24 36.6711 24.0167 37 24.0494V8C37 6.89543 36.1046 6 35 6H6C4.89543 6 4 6.89543 4 8V37C4 38.1046 4.89543 39 6 39H27.3378C26.9752 38.3732 26.6787 37.7033 26.4578 37H6V8Z" fill="#141414"/>
<path fill-rule="evenodd" clip-rule="evenodd" d="M36 42.25C40.4183 42.25 44 38.6683 44 34.25C44 29.8317 40.4183 26.25 36 26.25C31.5817 26.25 28 29.8317 28 34.25C28 38.6683 31.5817 42.25 36 42.25ZM40.2426 32.4038C40.4379 32.2085 40.4379 31.8919 40.2426 31.6967L38.8284 30.2825C38.6332 30.0872 38.3166 30.0872 38.1213 30.2825L32.8409 35.5629C32.6646 35.7391 32.5606 35.9749 32.5491 36.2239L32.4897 37.5129C32.4762 37.8069 32.7182 38.0489 33.0122 38.0354L34.3012 37.976C34.5502 37.9645 34.786 37.8605 34.9622 37.6842L40.2426 32.4038Z" fill="#0099F2"/>
</svg>
