<svg width="14" height="14" viewBox="0 0 14 14" fill="none" xmlns="http://www.w3.org/2000/svg">
<path d="M12.4688 2.63777H10.5V2.19043C10.5 1.46678 9.91115 0.87793 9.1875 0.87793H4.8125C4.08885 0.87793 3.5 1.46678 3.5 2.19043V2.63777H1.53125C1.41039 2.63777 1.3125 2.73566 1.3125 2.85652V3.29402C1.3125 3.41488 1.41039 3.51277 1.53125 3.51277H2.1875V11.8266C2.1875 12.5503 2.77635 13.1391 3.5 13.1391H10.5C11.2237 13.1391 11.8125 12.5503 11.8125 11.8266V3.51277H12.4688C12.5896 3.51277 12.6875 3.41488 12.6875 3.29402V2.85652C12.6875 2.7358 12.5896 2.63777 12.4688 2.63777ZM4.375 2.19057C4.375 1.94926 4.57119 1.75307 4.8125 1.75307H9.1875C9.42867 1.75307 9.625 1.94926 9.625 2.19057V2.62807H4.375V2.19057ZM10.9375 11.8268C10.9375 12.0679 10.7412 12.2643 10.5 12.2643H3.5C3.25869 12.2643 3.0625 12.0679 3.0625 11.8268V3.51428H10.9375V11.8268Z" fill="#838C91"/>
<path d="M5.44995 10.9385H5.88745C6.00831 10.9385 6.1062 10.8406 6.1062 10.7197V5.03223C6.1062 4.91137 6.00831 4.81348 5.88745 4.81348H5.44995C5.32909 4.81348 5.2312 4.91137 5.2312 5.03223V10.7197C5.2312 10.8404 5.32909 10.9385 5.44995 10.9385ZM8.08452 10.9385H8.52202C8.64288 10.9385 8.74077 10.8406 8.74077 10.7197V5.03223C8.74077 4.91137 8.64288 4.81348 8.52202 4.81348H8.08452C7.96366 4.81348 7.86577 4.91137 7.86577 5.03223V10.7197C7.86577 10.8404 7.96366 10.9385 8.08452 10.9385Z" fill="#838C91"/>
</svg>
