<svg width="12" height="4" viewBox="0 0 12 4" fill="none" xmlns="http://www.w3.org/2000/svg">
<path id="Union" fill-rule="evenodd" clip-rule="evenodd" d="M2.64039 2C2.64039 1.38144 2.13895 0.879995 1.52039 0.879995C0.901832 0.879995 0.400391 1.38144 0.400391 2C0.400391 2.61855 0.901832 3.12 1.52039 3.12C2.13895 3.12 2.64039 2.61855 2.64039 2ZM7.12064 1.99999C7.12064 1.38143 6.6192 0.879994 6.00064 0.879994C5.38208 0.879994 4.88064 1.38143 4.88064 1.99999C4.88064 2.61855 5.38208 3.12 6.00064 3.12C6.6192 3.12 7.12064 2.61855 7.12064 1.99999ZM10.4805 0.879994C11.099 0.879994 11.6005 1.38143 11.6005 1.99999C11.6005 2.61855 11.099 3.12 10.4805 3.12C9.86191 3.12 9.36047 2.61855 9.36047 1.99999C9.36047 1.38143 9.86191 0.879994 10.4805 0.879994Z" fill="#0099F2"/>
</svg>
