<svg width="48" height="48" viewBox="0 0 48 48" fill="none" xmlns="http://www.w3.org/2000/svg">
<path d="M13.2902 20.904L10.8902 17H13.3702L14.4102 18.712L14.8582 19.832L15.3382 18.712L16.4262 17H18.6822L16.2662 20.84L18.8422 25H16.4262L15.1942 23.08L14.7142 21.896L14.2022 23.08L12.9702 25H10.6982L13.2902 20.904Z" fill="#141414"/>
<path d="M22.0325 22.312C22.0325 22.6853 22.0805 22.9573 22.1765 23.128C22.2725 23.2987 22.4272 23.384 22.6405 23.384C22.7685 23.384 22.8912 23.3733 23.0085 23.352C23.1365 23.3307 23.2912 23.2827 23.4725 23.208L23.6965 24.84C23.5258 24.9253 23.2645 25.0107 22.9125 25.096C22.5605 25.1813 22.1978 25.224 21.8245 25.224C21.2165 25.224 20.7525 25.0853 20.4325 24.808C20.1125 24.52 19.9525 24.0507 19.9525 23.4V13.8H22.0325V22.312Z" fill="#141414"/>
<path d="M27.9036 22.792C27.9036 22.5787 27.813 22.408 27.6316 22.28C27.4503 22.152 27.2263 22.0347 26.9596 21.928C26.693 21.8213 26.3996 21.7147 26.0796 21.608C25.7596 21.4907 25.4663 21.336 25.1996 21.144C24.933 20.9413 24.709 20.6907 24.5276 20.392C24.3463 20.0827 24.2556 19.688 24.2556 19.208C24.2556 18.4187 24.4903 17.816 24.9596 17.4C25.429 16.984 26.1063 16.776 26.9916 16.776C27.5996 16.776 28.149 16.84 28.6396 16.968C29.1303 17.096 29.5143 17.24 29.7916 17.4L29.3276 18.904C29.0823 18.808 28.773 18.7067 28.3996 18.6C28.0263 18.4933 27.6476 18.44 27.2636 18.44C26.6449 18.44 26.3356 18.68 26.3356 19.16C26.3356 19.352 26.4263 19.5067 26.6076 19.624C26.7889 19.7413 27.013 19.8533 27.2796 19.96C27.5463 20.056 27.8396 20.1627 28.1596 20.28C28.4796 20.3973 28.773 20.552 29.0396 20.744C29.3063 20.9253 29.5303 21.1653 29.7116 21.464C29.893 21.7627 29.9836 22.1467 29.9836 22.616C29.9836 23.4267 29.7223 24.0667 29.1996 24.536C28.6876 24.9947 27.9143 25.224 26.8796 25.224C26.3143 25.224 25.781 25.1493 25.2796 25C24.789 24.8613 24.389 24.696 24.0796 24.504L24.6556 22.952C24.901 23.0907 25.2263 23.2293 25.6316 23.368C26.037 23.496 26.453 23.56 26.8796 23.56C27.189 23.56 27.4343 23.5013 27.6156 23.384C27.8076 23.2667 27.9036 23.0693 27.9036 22.792Z" fill="#141414"/>
<path fill-rule="evenodd" clip-rule="evenodd" d="M6 8H35V24.2994C35.3289 24.2667 35.6625 24.25 36 24.25C36.3375 24.25 36.6711 24.2667 37 24.2994V8C37 6.89543 36.1046 6 35 6H6C4.89543 6 4 6.89543 4 8V37C4 38.1046 4.89543 39 6 39H27.198C26.8577 38.3709 26.583 37.7012 26.3829 37H6V8Z" fill="#141414"/>
<path fill-rule="evenodd" clip-rule="evenodd" d="M44 34.25C44 38.6683 40.4183 42.25 36 42.25C31.5817 42.25 28 38.6683 28 34.25C28 29.8317 31.5817 26.25 36 26.25C40.4183 26.25 44 29.8317 44 34.25ZM37.1715 33.25H31V35.25H37.1716L35.3431 37.0784L36.7574 38.4926L39.5858 35.6642L41 34.25L39.5858 32.8358L39.5858 32.8358L36.7574 30.0074L35.3431 31.4216L37.1715 33.25Z" fill="#0099F2"/>
</svg>
