<svg width="14" height="14" viewBox="0 0 14 14" fill="none" xmlns="http://www.w3.org/2000/svg">
<path d="M1.06836 7.00011C1.06836 10.276 3.72408 12.9317 7.00011 12.9317C10.276 12.9317 12.9317 10.276 12.9317 7.00011C12.9317 3.72408 10.276 1.06836 7.00011 1.06836C3.72408 1.06851 1.06836 3.72423 1.06836 7.00011Z" fill="#0099F2"/>
<path d="M6.90344 3.07355C5.66202 3.10807 4.78524 3.81429 4.63387 4.84491C4.60354 5.17844 4.77023 5.36029 5.13394 5.39047C5.31564 5.42081 5.46732 5.28446 5.5885 4.98126C5.77036 4.34469 6.20929 4.02632 6.90731 4.02632C7.75576 4.08699 8.21048 4.51122 8.27161 5.29947C8.27161 6.02705 7.77774 6.14576 7.50936 6.36522C7.16949 6.64319 6.94724 6.92534 6.67499 7.40343C6.4464 7.80506 6.40693 8.6645 6.40693 8.6645C6.40693 9.02821 6.57316 9.21022 6.907 9.21022C7.20973 9.21022 7.37688 9.02837 7.40737 8.6645C7.40737 8.6645 7.44746 7.69997 7.83671 7.27357C8.27811 6.79022 9.33226 6.45128 9.36244 5.20862C9.24156 3.90498 8.5095 3.12803 6.90715 3.07324L6.90344 3.07355ZM6.90731 9.66866C6.55783 9.66866 6.27445 9.95204 6.27445 10.3015C6.27445 10.6511 6.55768 10.9345 6.90731 10.9345C7.25693 10.9345 7.54032 10.6511 7.54032 10.3015C7.54032 9.9522 7.25693 9.66866 6.90731 9.66866Z" fill="white"/>
</svg>
