<svg width="48" height="48" viewBox="0 0 48 48" fill="none" xmlns="http://www.w3.org/2000/svg">
<path fill-rule="evenodd" clip-rule="evenodd" d="M36 42.25C40.4183 42.25 44 38.6683 44 34.25C44 29.8317 40.4183 26.25 36 26.25C31.5817 26.25 28 29.8317 28 34.25C28 38.6683 31.5817 42.25 36 42.25ZM40 29H32V31L32 31L37.1998 34.0021L32.0073 37H32V37.0042V39H40V37H35.6697L39.031 35.0594L39.0508 35.0708L39.0705 35.0366L39.1338 35H40V33H39.1961L35.732 31H40V29Z" fill="#0099F2"/>
<path fill-rule="evenodd" clip-rule="evenodd" d="M35 8H6V37H26.3829C26.583 37.7012 26.8577 38.3709 27.198 39H6C4.89543 39 4 38.1046 4 37V8C4 6.89543 4.89543 6 6 6H35C36.1046 6 37 6.89543 37 8V24.2994C36.6711 24.2667 36.3375 24.25 36 24.25C35.6625 24.25 35.3289 24.2667 35 24.2994V8ZM16 12H10V18H16V12ZM18 12H32V14H18V12ZM18 20H32V22H18V20ZM32 16H18V18H32V16ZM18 24H32V26H18V24ZM10 20H16V26H10V20Z" fill="#141414"/>
</svg>
