<svg width="48" height="48" viewBox="0 0 48 48" fill="none" xmlns="http://www.w3.org/2000/svg">
<path d="M23.7272 15.2727V12L19.3636 16.3636L23.7272 20.7273V17.4546C27.3272 17.4546 30.2727 20.4 30.2727 24C30.2727 25.0909 29.9454 26.1818 29.509 27.0546L31.1454 28.6909C31.909 27.2727 32.4545 25.7454 32.4545 24C32.4545 19.2 28.5272 15.2727 23.7272 15.2727ZM23.7272 30.5454C20.1273 30.5454 17.1818 27.6 17.1818 24C17.1818 22.9091 17.5091 21.8182 17.9454 20.9454L16.3091 19.3091C15.5454 20.7273 15 22.2546 15 24C15 28.8 18.9273 32.7273 23.7273 32.7273V36L28.0909 31.6364L23.7273 27.2727V30.5454H23.7272Z" fill="#0099F2"/>
</svg>
