<svg width="36" height="36" viewBox="0 0 36 36" fill="none" xmlns="http://www.w3.org/2000/svg">
<g clip-path="url(#clip0_619_171090)">
<path d="M24 24L23.29 23.295C23.3829 23.2013 23.4935 23.1269 23.6154 23.0763C23.7373 23.0257 23.868 22.9997 24 23C24.2652 23 24.5196 22.8946 24.7071 22.7071C24.8946 22.5196 25 22.2652 25 22V12C25 11.7348 24.8946 11.4804 24.7071 11.2929C24.5196 11.1054 24.2652 11 24 11H14C13.7348 11 13.4804 11.1054 13.2929 11.2929C13.1054 11.4804 13 11.7348 13 12V12.085C13 12.36 12.89 12.609 12.71 12.79L12 12.085V12C12 11.4696 12.2107 10.9609 12.5858 10.5858C12.9609 10.2107 13.4696 10 14 10H24C24.5304 10 25.0391 10.2107 25.4142 10.5858C25.7893 10.9609 26 11.4696 26 12V22C26 22.5304 25.7893 23.0391 25.4142 23.4142C25.0391 23.7893 24.5304 24 24 24ZM11 14V24C11 24.2652 11.1054 24.5196 11.2929 24.7071C11.4804 24.8946 11.7348 25 12 25H22C22.2652 25 22.5196 24.8946 22.7071 24.7071C22.8946 24.5196 23 24.2652 23 24V14C23 13.7348 22.8946 13.4804 22.7071 13.2929C22.5196 13.1054 22.2652 13 22 13H12C11.7348 13 11.4804 13.1054 11.2929 13.2929C11.1054 13.4804 11 13.7348 11 14ZM22 12C22.5304 12 23.0391 12.2107 23.4142 12.5858C23.7893 12.9609 24 13.4696 24 14V24C24 24.5304 23.7893 25.0391 23.4142 25.4142C23.0391 25.7893 22.5304 26 22 26H12C11.4696 26 10.9609 25.7893 10.5858 25.4142C10.2107 25.0391 10 24.5304 10 24V14C10 13.4696 10.2107 12.9609 10.5858 12.5858C10.9609 12.2107 11.4696 12 12 12H22Z" fill="#445057"/>
<path d="M12.5 14H18.5C18.6326 14 18.7598 14.0527 18.8536 14.1464C18.9473 14.2402 19 14.3674 19 14.5C19 14.6326 18.9473 14.7598 18.8536 14.8536C18.7598 14.9473 18.6326 15 18.5 15H12.5C12.3674 15 12.2402 14.9473 12.1464 14.8536C12.0527 14.7598 12 14.6326 12 14.5C12 14.3674 12.0527 14.2402 12.1464 14.1464C12.2402 14.0527 12.3674 14 12.5 14ZM21.5 15C21.3674 15 21.2402 14.9473 21.1464 14.8536C21.0527 14.7598 21 14.6326 21 14.5C21 14.3674 21.0527 14.2402 21.1464 14.1464C21.2402 14.0527 21.3674 14 21.5 14C21.6326 14 21.7598 14.0527 21.8536 14.1464C21.9473 14.2402 22 14.3674 22 14.5C22 14.6326 21.9473 14.7598 21.8536 14.8536C21.7598 14.9473 21.6326 15 21.5 15ZM11 16H23V17H11V16Z" fill="#445057"/>
</g>
<defs>
<clipPath id="clip0_619_171090">
<rect width="16" height="16" fill="white" transform="translate(10 10)"/>
</clipPath>
</defs>
</svg>
