<svg width="48" height="48" viewBox="0 0 48 48" fill="none" xmlns="http://www.w3.org/2000/svg">
<path d="M11.8545 24V19.648C11.8545 18.912 11.7852 18.3893 11.6465 18.08C11.5079 17.7707 11.2199 17.616 10.7825 17.616C10.4199 17.616 10.1265 17.7173 9.90255 17.92C9.67855 18.112 9.50788 18.3627 9.39055 18.672V24H7.31055V16H8.92655L9.16655 17.056H9.23055C9.47588 16.7147 9.78521 16.416 10.1585 16.16C10.5425 15.904 11.0332 15.776 11.6305 15.776C12.1425 15.776 12.5585 15.8827 12.8785 16.096C13.2092 16.2987 13.4652 16.6453 13.6465 17.136C13.8919 16.72 14.2065 16.3893 14.5905 16.144C14.9745 15.8987 15.4385 15.776 15.9825 15.776C16.4305 15.776 16.8092 15.8293 17.1185 15.936C17.4385 16.0427 17.6945 16.2293 17.8865 16.496C18.0892 16.752 18.2385 17.0987 18.3345 17.536C18.4305 17.9733 18.4785 18.528 18.4785 19.2V24H16.3985V19.504C16.3985 18.8747 16.3292 18.4053 16.1905 18.096C16.0625 17.776 15.7692 17.616 15.3105 17.616C14.9372 17.616 14.6385 17.7173 14.4145 17.92C14.2012 18.1227 14.0412 18.4 13.9345 18.752V24H11.8545Z" fill="#141414"/>
<path d="M23.4975 21.792C23.4975 21.5787 23.4069 21.408 23.2255 21.28C23.0442 21.152 22.8202 21.0347 22.5535 20.928C22.2869 20.8213 21.9935 20.7147 21.6735 20.608C21.3535 20.4907 21.0602 20.336 20.7935 20.144C20.5269 19.9413 20.3029 19.6907 20.1215 19.392C19.9402 19.0827 19.8495 18.688 19.8495 18.208C19.8495 17.4187 20.0842 16.816 20.5535 16.4C21.0229 15.984 21.7002 15.776 22.5855 15.776C23.1935 15.776 23.7429 15.84 24.2335 15.968C24.7242 16.096 25.1082 16.24 25.3855 16.4L24.9215 17.904C24.6762 17.808 24.3669 17.7067 23.9935 17.6C23.6202 17.4933 23.2415 17.44 22.8575 17.44C22.2389 17.44 21.9295 17.68 21.9295 18.16C21.9295 18.352 22.0202 18.5067 22.2015 18.624C22.3829 18.7413 22.6069 18.8533 22.8735 18.96C23.1402 19.056 23.4335 19.1627 23.7535 19.28C24.0735 19.3973 24.3669 19.552 24.6335 19.744C24.9002 19.9253 25.1242 20.1653 25.3055 20.464C25.4869 20.7627 25.5775 21.1467 25.5775 21.616C25.5775 22.4267 25.3162 23.0667 24.7935 23.536C24.2815 23.9947 23.5082 24.224 22.4735 24.224C21.9082 24.224 21.3749 24.1493 20.8735 24C20.3829 23.8613 19.9829 23.696 19.6735 23.504L20.2495 21.952C20.4949 22.0907 20.8202 22.2293 21.2255 22.368C21.6309 22.496 22.0469 22.56 22.4735 22.56C22.7829 22.56 23.0282 22.5013 23.2095 22.384C23.4015 22.2667 23.4975 22.0693 23.4975 21.792Z" fill="#141414"/>
<path d="M33.7035 24C33.7035 25.1627 33.3889 26.016 32.7595 26.56C32.1302 27.1147 31.2502 27.392 30.1195 27.392C29.3515 27.392 28.7435 27.3387 28.2955 27.232C27.8582 27.1253 27.5275 27.0133 27.3035 26.896L27.7355 25.248C27.9809 25.344 28.2635 25.44 28.5835 25.536C28.9142 25.632 29.3195 25.68 29.7995 25.68C30.5249 25.68 31.0155 25.52 31.2715 25.2C31.5382 24.8907 31.6715 24.4533 31.6715 23.888V23.376H31.6075C31.2342 23.8773 30.5729 24.128 29.6235 24.128C28.5889 24.128 27.8155 23.808 27.3035 23.168C26.8022 22.528 26.5515 21.5253 26.5515 20.16C26.5515 18.7307 26.8929 17.648 27.5755 16.912C28.2582 16.176 29.2502 15.808 30.5515 15.808C31.2342 15.808 31.8422 15.856 32.3755 15.952C32.9195 16.048 33.3622 16.16 33.7035 16.288V24ZM30.1835 22.464C30.5889 22.464 30.8982 22.3733 31.1115 22.192C31.3355 22.0107 31.5062 21.7387 31.6235 21.376V17.776C31.2929 17.6373 30.8822 17.568 30.3915 17.568C29.8582 17.568 29.4422 17.7707 29.1435 18.176C28.8449 18.5707 28.6955 19.2053 28.6955 20.08C28.6955 20.8587 28.8235 21.4507 29.0795 21.856C29.3355 22.2613 29.7035 22.464 30.1835 22.464Z" fill="#141414"/>
<path fill-rule="evenodd" clip-rule="evenodd" d="M6 8H35V25.058C35.3283 25.0197 35.662 25 36 25C36.338 25 36.6717 25.0197 37 25.058V8C37 6.89543 36.1046 6 35 6H6C4.89543 6 4 6.89543 4 8V37C4 38.1046 4.89543 39 6 39H28.0718C27.7514 38.3724 27.4959 37.7024 27.3149 37H6V8Z" fill="#141414"/>
<path fill-rule="evenodd" clip-rule="evenodd" d="M36 42.25C40.4183 42.25 44 38.6683 44 34.25C44 29.8317 40.4183 26.25 36 26.25C31.5817 26.25 28 29.8317 28 34.25C28 38.6683 31.5817 42.25 36 42.25ZM40.2426 32.4038C40.4379 32.2085 40.4379 31.8919 40.2426 31.6967L38.8284 30.2825C38.6332 30.0872 38.3166 30.0872 38.1213 30.2825L32.8409 35.5629C32.6646 35.7391 32.5606 35.9749 32.5491 36.2239L32.4897 37.5129C32.4762 37.8069 32.7182 38.0489 33.0122 38.0354L34.3012 37.976C34.5502 37.9645 34.786 37.8605 34.9622 37.6842L40.2426 32.4038Z" fill="#0099F2"/>
</svg>
