<svg width="14" height="14" viewBox="0 0 14 14" fill="none" xmlns="http://www.w3.org/2000/svg">
<path d="M4.37844 4.8129L11.6327 4.8129L9.75559 2.93439C9.68018 2.85116 9.63966 2.74213 9.64243 2.62986C9.64519 2.51759 9.69103 2.41068 9.77044 2.33127C9.84985 2.25185 9.95676 2.20602 10.069 2.20326C10.1813 2.20049 10.2903 2.24101 10.3736 2.31642L12.9931 4.93458C13.0348 4.97533 13.068 5.02403 13.0907 5.0778C13.1133 5.13156 13.125 5.18932 13.125 5.24767C13.125 5.30601 13.1133 5.36377 13.0907 5.41754C13.068 5.4713 13.0348 5.52 12.9931 5.56075L10.3763 8.18438C10.2942 8.26651 10.1828 8.31265 10.0666 8.31265C9.95047 8.31265 9.83908 8.26651 9.75695 8.18438C9.67483 8.10226 9.62869 7.99087 9.62869 7.87472C9.62869 7.75857 9.67483 7.64718 9.75695 7.56505L11.6341 5.6879L4.37844 5.6879C3.68225 5.6879 3.01457 5.96446 2.52228 6.45675C2.03 6.94903 1.75344 7.61671 1.75344 8.3129C1.75344 9.00909 2.03 9.67677 2.52228 10.1691C3.01457 10.6613 3.68225 10.9379 4.37844 10.9379L8.75344 10.9379C8.86947 10.9379 8.98075 10.984 9.0628 11.066C9.14484 11.1481 9.19094 11.2594 9.19094 11.3754C9.19094 11.4914 9.14484 11.6027 9.0628 11.6848C8.98075 11.7668 8.86947 11.8129 8.75344 11.8129L4.37844 11.8129C3.45018 11.8129 2.55994 11.4442 1.90356 10.7878C1.24719 10.1314 0.878439 9.24116 0.878439 8.3129C0.878439 7.38464 1.24719 6.4944 1.90356 5.83803C2.55994 5.18165 3.45018 4.8129 4.37844 4.8129Z" fill="#838C91"/>
</svg>
