<svg width="48" height="48" viewBox="0 0 48 48" fill="none" xmlns="http://www.w3.org/2000/svg">
<path d="M10.9264 17.464C11.3531 17.272 11.8598 17.1227 12.4464 17.016C13.0331 16.8987 13.6464 16.84 14.2864 16.84C14.8411 16.84 15.3051 16.9093 15.6784 17.048C16.0518 17.176 16.3451 17.3627 16.5584 17.608C16.7824 17.8533 16.9371 18.1467 17.0224 18.488C17.1184 18.8293 17.1664 19.2133 17.1664 19.64C17.1664 20.1093 17.1504 20.584 17.1184 21.064C17.0864 21.5333 17.0651 21.9973 17.0544 22.456C17.0544 22.9147 17.0704 23.3627 17.1024 23.8C17.1344 24.2267 17.2144 24.632 17.3424 25.016H15.6464L15.3104 23.912H15.2304C15.0171 24.2427 14.7184 24.5307 14.3344 24.776C13.9611 25.0107 13.4758 25.128 12.8784 25.128C12.5051 25.128 12.1691 25.0747 11.8704 24.968C11.5718 24.8507 11.3158 24.6907 11.1024 24.488C10.8891 24.2747 10.7238 24.0293 10.6064 23.752C10.4891 23.464 10.4304 23.144 10.4304 22.792C10.4304 22.3013 10.5371 21.8907 10.7504 21.56C10.9744 21.2187 11.2891 20.9467 11.6944 20.744C12.1104 20.5307 12.6011 20.3867 13.1664 20.312C13.7424 20.2267 14.3824 20.2 15.0864 20.232C15.1611 19.6347 15.1184 19.208 14.9584 18.952C14.7984 18.6853 14.4411 18.552 13.8864 18.552C13.4704 18.552 13.0278 18.5947 12.5584 18.68C12.0998 18.7653 11.7211 18.8773 11.4224 19.016L10.9264 17.464ZM13.5664 23.416C13.9824 23.416 14.3131 23.3253 14.5584 23.144C14.8038 22.952 14.9851 22.7493 15.1024 22.536V21.496C14.7718 21.464 14.4518 21.4587 14.1424 21.48C13.8438 21.5013 13.5771 21.5493 13.3424 21.624C13.1078 21.6987 12.9211 21.8053 12.7824 21.944C12.6438 22.0827 12.5744 22.2587 12.5744 22.472C12.5744 22.7707 12.6598 23.0053 12.8304 23.176C13.0118 23.336 13.2571 23.416 13.5664 23.416Z" fill="#141414"/>
<path d="M18.9119 17H20.4319L20.6719 17.96H20.7359C21.0133 17.5547 21.3386 17.256 21.7119 17.064C22.0959 16.872 22.5599 16.776 23.1039 16.776C24.1066 16.776 24.8586 17.096 25.3599 17.736C25.8613 18.3653 26.1119 19.384 26.1119 20.792C26.1119 21.4747 26.0319 22.0933 25.8719 22.648C25.7119 23.192 25.4719 23.656 25.1519 24.04C24.8426 24.424 24.4586 24.7173 23.9999 24.92C23.5519 25.1227 23.0346 25.224 22.4479 25.224C22.1173 25.224 21.8453 25.1973 21.6319 25.144C21.4186 25.1013 21.2053 25.0267 20.9919 24.92V28.2H18.9119V17ZM22.4799 18.536C22.0746 18.536 21.7546 18.6373 21.5199 18.84C21.2959 19.0427 21.1199 19.3467 20.9919 19.752V23.08C21.1413 23.1973 21.3013 23.2933 21.4719 23.368C21.6533 23.432 21.8879 23.464 22.1759 23.464C22.7733 23.464 23.2213 23.256 23.5199 22.84C23.8186 22.4133 23.9679 21.7147 23.9679 20.744C23.9679 20.04 23.8506 19.496 23.6159 19.112C23.3813 18.728 23.0026 18.536 22.4799 18.536Z" fill="#141414"/>
<path d="M27.7285 17H29.8085V25H27.7285V17ZM27.4245 14.744C27.4245 14.4347 27.5365 14.1733 27.7605 13.96C27.9952 13.736 28.3152 13.624 28.7205 13.624C29.1259 13.624 29.4512 13.736 29.6965 13.96C29.9525 14.1733 30.0805 14.4347 30.0805 14.744C30.0805 15.0533 29.9525 15.3147 29.6965 15.528C29.4512 15.7307 29.1259 15.832 28.7205 15.832C28.3152 15.832 27.9952 15.7307 27.7605 15.528C27.5365 15.3147 27.4245 15.0533 27.4245 14.744Z" fill="#141414"/>
<path fill-rule="evenodd" clip-rule="evenodd" d="M6 8H35V24.2994C35.3289 24.2667 35.6625 24.25 36 24.25C36.3375 24.25 36.6711 24.2667 37 24.2994V8C37 6.89543 36.1046 6 35 6H6C4.89543 6 4 6.89543 4 8V37C4 38.1046 4.89543 39 6 39H27.198C26.8577 38.3709 26.583 37.7012 26.3829 37H6V8Z" fill="#141414"/>
<path fill-rule="evenodd" clip-rule="evenodd" d="M36 42C40.4183 42 44 38.4183 44 34C44 29.5817 40.4183 26 36 26C31.5817 26 28 29.5817 28 34C28 38.4183 31.5817 42 36 42ZM35 30.75L35 31.75V35.1716L33.1715 33.3431L31.7573 34.7574L34.5857 37.5858L34.5857 37.5858L36 39L37.4142 37.5858L40.2426 34.7574L38.8284 33.3431L37 35.1715V31.75L41 31.75V29.75H35L35 30.75Z" fill="#0099F2"/>
</svg>
