<svg width="14" height="14" viewBox="0 0 14 14" fill="none" xmlns="http://www.w3.org/2000/svg">
<path fill-rule="evenodd" clip-rule="evenodd" d="M3.45012 13.0185H1.35185C1.14074 13.0185 1 12.8777 1 12.6666V1.3333C1 1.12219 1.14074 0.981445 1.35185 0.981445H9.48148C9.58704 0.981445 9.65741 1.01663 9.72778 1.087L12.8944 4.25367C12.9648 4.32404 13 4.39441 13 4.49996V12.6666C13 12.8777 12.8593 13.0185 12.6481 13.0185H10.5499C10.5456 13.0186 10.5413 13.0187 10.537 13.0187H3.46296C3.45865 13.0187 3.45437 13.0186 3.45012 13.0185ZM3.11111 12.3148H1.7037V1.68515H9.34074L12.2963 4.6407V12.3148H10.8889V9.03717C10.8889 8.82606 10.7481 8.68532 10.537 8.68532H3.46296C3.25185 8.68532 3.11111 8.82606 3.11111 9.03717V12.3148ZM10.1852 12.3148H3.81481V9.38903H10.1852V12.3148ZM9.7963 5.83347H6.98148C6.77037 5.83347 6.62963 5.69273 6.62963 5.48162C6.62963 5.27051 6.77037 5.12977 6.98148 5.12977H9.7963C10.0074 5.12977 10.1481 5.27051 10.1481 5.48162C10.1481 5.69273 10.0074 5.83347 9.7963 5.83347Z" fill="#838C91"/>
</svg>
