<svg width="36" height="36" viewBox="0 0 36 36" fill="none" xmlns="http://www.w3.org/2000/svg">
<path d="M18.0002 11.1429C18.2076 11.1429 18.4176 11.1526 18.6276 11.172L19.8128 12.4154L20.1619 12.7817L20.6677 12.7694L22.3851 12.7283C22.7072 12.9965 23.0041 13.2934 23.2723 13.6154L23.2312 15.3329L23.2189 15.8386L23.5852 16.1877L24.8286 17.3729C24.8671 17.7902 24.867 18.2101 24.8283 18.6274L23.5849 19.8126L23.2186 20.1617L23.2309 20.6674L23.272 22.3849C23.0038 22.7069 22.7069 23.0038 22.3848 23.272L20.6674 23.2309L20.1617 23.2186L19.8125 23.5849L18.6273 24.8286C18.21 24.8669 17.79 24.8667 17.3727 24.828L16.1876 23.5843L15.8384 23.218L15.3327 23.2303L13.6152 23.2714C13.2932 23.0033 12.9962 22.7063 12.7281 22.3843L12.7692 20.6669L12.7815 20.1611L12.4152 19.812L11.1717 18.6269C11.1333 18.2096 11.1334 17.7898 11.172 17.3726L12.4155 16.1874L12.7818 15.8383L12.7695 15.3326L12.7283 13.6151C12.9965 13.2931 13.2935 12.9962 13.6155 12.728L15.333 12.7691L15.8387 12.7814L16.1879 12.4151L17.373 11.1717C17.5815 11.1526 17.7908 11.143 18.0002 11.1429ZM18.0002 21.4286C19.8908 21.4286 21.4288 19.8906 21.4288 18C21.4288 16.1094 19.8908 14.5714 18.0002 14.5714C16.1096 14.5714 14.5715 16.1094 14.5715 18C14.5715 19.8906 16.1096 21.4286 18.0002 21.4286ZM18.0002 10C17.6022 10 17.2113 10.03 16.8287 10.0863L15.3604 11.6271L13.2326 11.576C12.6026 12.0444 12.0445 12.6025 11.576 13.2326L11.6272 15.3603L10.0863 16.8286C10.029 17.2164 10.0002 17.6079 10 18C10 18.398 10.03 18.7889 10.0863 19.1714L11.6272 20.6397L11.576 22.7674C12.0444 23.3975 12.6025 23.9556 13.2326 24.424L15.3604 24.3729L16.829 25.9137C17.2113 25.97 17.6022 26 18.0002 26C18.3982 26 18.7891 25.97 19.1716 25.9137L20.6402 24.3729L22.768 24.424C23.398 23.9556 23.9561 23.3975 24.4246 22.7674L24.3735 20.6397L25.9144 19.1714C26.0286 18.3947 26.0285 17.6053 25.9141 16.8286L24.3732 15.3603L24.4243 13.2326C23.9559 12.6025 23.3977 12.0444 22.7677 11.576L20.64 11.6271L19.1716 10.0863C18.7838 10.029 18.3922 10.0002 18.0002 10ZM18.0002 20.2857C17.394 20.2857 16.8126 20.0449 16.3839 19.6162C15.9552 19.1876 15.7144 18.6062 15.7144 18C15.7144 17.3938 15.9552 16.8124 16.3839 16.3838C16.8126 15.9551 17.394 15.7143 18.0002 15.7143C18.6064 15.7143 19.1878 15.9551 19.6165 16.3838C20.0451 16.8124 20.2859 17.3938 20.2859 18C20.2859 18.6062 20.0451 19.1876 19.6165 19.6162C19.1878 20.0449 18.6064 20.2857 18.0002 20.2857Z" fill="#445057"/>
</svg>
